<svg width="20" height="20" viewBox="0 0 20 20" fill="none" xmlns="http://www.w3.org/2000/svg">
<path d="M4.1665 5.99992H5.49984M5.49984 5.99992H16.1665M5.49984 5.99992V15.3333C5.49984 15.6869 5.64031 16.026 5.89036 16.2761C6.14041 16.5261 6.47955 16.6666 6.83317 16.6666H13.4998C13.8535 16.6666 14.1926 16.5261 14.4426 16.2761C14.6927 16.026 14.8332 15.6869 14.8332 15.3333V5.99992M7.49984 5.99992V4.66659C7.49984 4.31296 7.64031 3.97382 7.89036 3.72378C8.14041 3.47373 8.47955 3.33325 8.83317 3.33325H11.4998C11.8535 3.33325 12.1926 3.47373 12.4426 3.72378C12.6927 3.97382 12.8332 4.31296 12.8332 4.66659V5.99992M8.83317 9.33325V13.3333M11.4998 9.33325V13.3333" stroke="#CC2929" stroke-width="1.5" stroke-linecap="round" stroke-linejoin="round"/>
</svg>
