<svg width="24" height="25" viewBox="0 0 24 25" fill="none" xmlns="http://www.w3.org/2000/svg">
<path d="M11.2575 6.92944H6.34613C5.97396 6.92944 5.61704 7.07729 5.35388 7.34045C5.09071 7.60361 4.94287 7.96053 4.94287 8.3327V18.1555C4.94287 18.5277 5.09071 18.8846 5.35388 19.1477C5.61704 19.4109 5.97396 19.5587 6.34613 19.5587H16.1689C16.5411 19.5587 16.898 19.4109 17.1612 19.1477C17.4243 18.8846 17.5722 18.5277 17.5722 18.1555V13.2441" stroke="white" stroke-width="2" stroke-linecap="round" stroke-linejoin="round"/>
<path d="M16.5165 5.8771C16.7956 5.59797 17.1742 5.44116 17.5689 5.44116C17.9637 5.44116 18.3423 5.59797 18.6214 5.8771C18.9005 6.15622 19.0573 6.5348 19.0573 6.92954C19.0573 7.32428 18.9005 7.70286 18.6214 7.98198L11.9559 14.6474L9.14941 15.3491L9.85104 12.5426L16.5165 5.8771Z" stroke="white" stroke-width="2" stroke-linecap="round" stroke-linejoin="round"/>
</svg>
