<svg width="24" height="25" viewBox="0 0 24 25" fill="none" xmlns="http://www.w3.org/2000/svg">
<path d="M12 0.5C9.62663 0.5 7.30655 1.20379 5.33316 2.52236C3.35977 3.84094 1.8217 5.71508 0.913451 7.9078C0.00519941 10.1005 -0.232441 12.5133 0.230582 14.8411C0.693605 17.1689 1.83649 19.307 3.51472 20.9853C5.19295 22.6635 7.33115 23.8064 9.65892 24.2694C11.9867 24.7324 14.3995 24.4948 16.5922 23.5865C18.7849 22.6783 20.6591 21.1402 21.9776 19.1668C23.2962 17.1934 24 14.8734 24 12.5C23.9966 9.31843 22.7313 6.26814 20.4816 4.01843C18.2319 1.76872 15.1816 0.50336 12 0.5ZM17.2685 10.3838L10.8069 16.8454C10.7212 16.9312 10.6194 16.9993 10.5073 17.0457C10.3953 17.0922 10.2752 17.1161 10.1538 17.1161C10.0325 17.1161 9.91243 17.0922 9.80037 17.0457C9.68831 16.9993 9.5865 16.9312 9.50077 16.8454L6.73154 14.0762C6.55834 13.9029 6.46103 13.668 6.46103 13.4231C6.46103 13.1781 6.55834 12.9432 6.73154 12.77C6.90475 12.5968 7.13967 12.4995 7.38462 12.4995C7.62957 12.4995 7.86449 12.5968 8.0377 12.77L10.1538 14.8873L15.9623 9.07769C16.0481 8.99193 16.1499 8.9239 16.2619 8.87748C16.374 8.83107 16.4941 8.80718 16.6154 8.80718C16.7367 8.80718 16.8568 8.83107 16.9688 8.87748C17.0809 8.9239 17.1827 8.99193 17.2685 9.07769C17.3542 9.16345 17.4223 9.26527 17.4687 9.37733C17.5151 9.48938 17.539 9.60948 17.539 9.73077C17.539 9.85205 17.5151 9.97216 17.4687 10.0842C17.4223 10.1963 17.3542 10.2981 17.2685 10.3838Z" fill="url(#paint0_linear_15542_7596)"/>
<defs>
<linearGradient id="paint0_linear_15542_7596" x1="12" y1="0.5" x2="12" y2="24.5" gradientUnits="userSpaceOnUse">
<stop stop-color="#154FBB"/>
<stop offset="1" stop-color="#1C4996"/>
</linearGradient>
</defs>
</svg>
